<svg xmlns="http://www.w3.org/2000/svg" width="128" height="192" viewBox="0 0 128 192"><rect width="100%" height="100%" fill="#DDDDDD"/><path fill="#999999" d="M35.215 87.87h2.14v13.01h-1.25q-.28 0-.48-.09-.19-.1-.37-.32l-6.8-8.68q.06.59.06 1.1v7.99h-2.13V87.87h1.26q.16 0 .27.01t.2.05q.08.04.16.12.09.08.18.2l6.83 8.71q-.03-.31-.05-.62-.02-.3-.02-.56zm8.77 3.63q1.03 0 1.87.33.84.34 1.44.95t.92 1.49q.32.89.32 1.97 0 1.1-.32 1.98-.32.89-.92 1.51t-1.44.95q-.84.34-1.87.34-1.04 0-1.88-.34-.85-.33-1.45-.95-.59-.62-.92-1.51-.33-.88-.33-1.98 0-1.08.33-1.97.33-.88.92-1.49.6-.61 1.45-.95.84-.33 1.88-.33m0 7.8q1.15 0 1.7-.77.56-.77.56-2.27 0-1.49-.56-2.27-.55-.79-1.7-.79-1.17 0-1.73.79-.57.79-.57 2.27 0 1.49.57 2.27.56.77 1.73.77m13.41-11.43v13.01h-2.43V87.87zm4.78 13.01h-2.22v-9.23h1.35q.44 0 .57.4l.15.68q.24-.27.5-.49.27-.23.57-.39t.65-.25q.35-.1.76-.1.87 0 1.43.47.57.48.85 1.26.21-.46.54-.79.32-.33.71-.53.38-.21.82-.31t.88-.1q.76 0 1.36.24.59.23 1 .68.4.45.61 1.1t.21 1.48v5.88h-2.22V95q0-.88-.39-1.32-.38-.45-1.13-.45-.34 0-.63.12-.3.11-.52.33t-.34.56q-.13.33-.13.76v5.88h-2.23V95q0-.92-.38-1.35-.37-.42-1.09-.42-.48 0-.9.24t-.78.65zm17.73-2.39v-1.55q-.96.04-1.62.16-.66.13-1.05.31-.4.19-.57.45-.17.25-.17.54 0 .59.34.84.35.25.91.25.68 0 1.18-.24.5-.25.98-.76m-4.7-4.85-.4-.71q1.6-1.46 3.84-1.46.81 0 1.45.27t1.08.74.67 1.13q.23.65.23 1.44v5.83h-1.01q-.32 0-.49-.09-.17-.1-.27-.39l-.19-.66q-.36.31-.69.55t-.69.4-.77.25q-.41.08-.91.08-.58 0-1.08-.15-.49-.16-.85-.48-.36-.31-.56-.78t-.2-1.09q0-.35.12-.7.12-.34.38-.66.27-.31.69-.59t1.04-.49q.62-.2 1.44-.33.82-.14 1.87-.16v-.54q0-.93-.4-1.37-.39-.45-1.14-.45-.54 0-.9.13-.35.12-.62.28t-.49.28q-.22.13-.49.13-.24 0-.4-.12t-.26-.29m12.33 2.4q.41 0 .72-.11.31-.12.51-.32.2-.19.3-.47.11-.28.11-.61 0-.69-.41-1.09t-1.23-.4-1.23.4-.41 1.09q0 .32.11.6.1.28.3.48t.51.32q.32.11.72.11m2.51 5.25q0-.27-.16-.44t-.44-.26q-.28-.1-.65-.14-.38-.05-.8-.07l-.86-.04q-.45-.02-.87-.07-.37.2-.6.48t-.23.65q0 .25.12.46.13.21.39.36.27.15.69.24t1.04.09 1.07-.1q.45-.09.74-.26t.43-.4q.13-.23.13-.5m-.44-9.33h2.66v.83q0 .39-.48.48l-.83.16q.19.47.19 1.04 0 .69-.28 1.24-.27.55-.76.94-.48.39-1.14.6t-1.43.21q-.27 0-.52-.03-.25-.02-.5-.07-.43.26-.43.59 0 .27.26.41.25.13.68.18.42.05.96.07.54.01 1.11.06.56.04 1.1.15.54.12.97.36.42.24.68.66.25.42.25 1.08 0 .61-.3 1.18-.3.58-.87 1.03t-1.41.72q-.83.28-1.89.28-1.04 0-1.82-.2-.77-.21-1.28-.54-.52-.34-.77-.78t-.25-.92q0-.65.39-1.08.39-.44 1.08-.7-.37-.19-.59-.51-.22-.31-.22-.82 0-.21.08-.43t.23-.44q.14-.21.37-.41.22-.19.53-.34-.7-.38-1.1-1.01t-.4-1.48q0-.68.27-1.24.28-.55.77-.94t1.16-.6 1.46-.21q.59 0 1.12.13.52.12.95.35m5.81 3.24h4.2q0-.43-.12-.81-.12-.39-.37-.67-.24-.29-.61-.46-.38-.17-.87-.17-.97 0-1.52.55t-.71 1.56m5.67 1.34h-5.71q.05.71.25 1.23t.52.86q.33.33.77.5.45.17.99.17t.93-.13.68-.28q.3-.15.52-.28.22-.12.42-.12.28 0 .42.2l.64.81q-.37.43-.83.73-.46.29-.96.47-.5.17-1.02.24-.51.08-1 .08-.96 0-1.79-.32t-1.44-.95-.96-1.55-.35-2.14q0-.94.3-1.77.31-.84.88-1.45.57-.62 1.39-.98.83-.36 1.86-.36.88 0 1.61.28.74.28 1.27.82.53.53.83 1.31.31.78.31 1.78 0 .5-.11.68-.11.17-.42.17"/></svg>